<mxfile host="app.diagrams.net" modified="2022-05-26T14:50:41.019Z" agent="5.0 (Windows NT 10.0; Win64; x64) AppleWebKit/537.36 (KHTML, like Gecko) Chrome/101.0.4951.67 Safari/537.36" etag="pdeke9EYmP_DKDv-exmR" version="18.0.2" type="github">
  <diagram id="DIjG7M9EO6KjJfsFIJVa" name="Page-1">
    <mxGraphModel dx="1038" dy="539" grid="0" gridSize="10" guides="1" tooltips="1" connect="1" arrows="1" fold="1" page="1" pageScale="1" pageWidth="850" pageHeight="1100" math="0" shadow="0">
      <root>
        <mxCell id="0" />
        <mxCell id="1" parent="0" />
        <mxCell id="ljlW2vq5dHe49hg8azWz-36" value="Pivot Smart meter Data &#xa;visualization microservice" style="shape=image;verticalLabelPosition=bottom;labelBackgroundColor=default;verticalAlign=top;aspect=fixed;imageAspect=0;image=data:image/jpeg,/9j/4AAQSkZJRgABAQAAAQABAAD/2wCEAAkGBxISEhUQEhATFhUVFxUXFhUYFxgWFxcYGxYWFhUVFxgYHSggGRolGxYXITEhJSkrLi4uGB8zODMtNygtLisBCgoKDg0OGhAQGismHyUtKy8tLS0tLS0tLS0tLS0rLS0uLS0tLS0tLSstLy0tLS0tLS0tLS01LS0rLS0tLS0tLf/AABEIAMIBBAMBIgACEQEDEQH/xAAbAAACAwEBAQAAAAAAAAAAAAAABAIDBQEGB//EAEgQAAEDAQQFCQYCBgkEAwAAAAEAAhEDEiExUQQFE0FhFSIycYGRobHRBhRSU5LBNPAjQmJzstIzQ3KCoqOzw+EkVHTThJPC/8QAGgEBAQEBAQEBAAAAAAAAAAAAAAECAwQFBv/EAC4RAAIBAgQEBAcAAwAAAAAAAAABAgMRITFBUQQSE5FhgcHwIjJxobHR8UJS4f/aAAwDAQACEQMRAD8A+3vdCrNQ5HwVWnuhqg7R2WrRi04NHSImwS4QOEkqO+hVbUvNU5eXqjanI+Hqlqei07IYIsgkwHEwQ6XXzNzj2K8UgWxdBEY4iIx6lURZYktqcj4eqNqcj4eqLG9caQcCDGRlC4Hdqcj4eqNqcj4eqi9wGJAlWWUGBHanI+HqjanLy9VKyUvWoNtNqOAlgdDiSIBi1O6OaMckGBdtTl5eqNqcvL1XG3iQQRuKlZKDA5tTl5eqNqcvL1XbJRZKDA5tTl5eq7tDl5eqi+lOOYOJGBkYJcatZEQ679up/MgwGtqcvL1XNqcvL1Sx1YzJ3/2VP5lNmhNBBEyMOc4+BKDAu2py8vVG1OXl6rtkoslBgc2py8vVG1OXl6rtkqM3xIlBgS2hy8vVc2pyPh6qh5Zc03y4XQ433uBMC4SMTcijptJ7zTbVpue2bTQ4FwgwZAvF6DAv2pyPh6o2pyPh6rgM7wqNYaZToU3VqrwymwS5xm4dgkoMBjanI+HqjanI+HqqtE0htRgqMMtdgbx3giQeBURptLHa0/rCDAv2pyPh6o2pyPh6qulpDHGGvYTkHAnjgqamsaLagourUxUMQwuAcZwgYqpN5IjaWY3tTkfD1XW1dyg4xeSB1mFTWdDm8Z+yhcB5CiEIQU1l0UprHVdOs5rnuqtIAALKhpm61EOaQ4dJ2BE703rLoqWkaJSfDn02ONwBLQSO/rKqtqDDZ7K0BMP0oWptRWdzg4lzgTN4JcSRx6lvUgGtDQDDQAMMAICXqawawlmyrc2BzaTy2MwQIIVmjae2o6yKdUXEy6m9guMRLgL1AMW+B8FTSptZJawibzx7ymoUXi49RVuBCuGPLXEO5t4ynPG9W1HtdcWk7vvmqajrw0PaCQ4gGJMDGN4EhL2qw/rtHmTcWnsHS3KkGBQpfA67C88P2uAXdIpsqU3UnMcWuEETfG6+Z3Kj9NN1WjECZBJBi/AiBcTB78uMdWumrQgRMAzEif1oF07u5LFTad0WUNEpMa1raboYGtbecG4b70zSc1oshroiM/ElG0b8Te8I2rfib3hLBtt3ZXUZTJksdPWRujcVbTqNaIDXR+czxUhCISxA94GR8PVHvAyPh6ohEJYB7wMj4eqPeBkfD1RCISwD3gZHw9Ue8DI+HqiEQlgHvAyPh6qgMZb2lk2oieEzGOavhEIsAK06VNtR1UNNohoJzDZsjGLrR70vomq6FKq6syjD3WpcAJNoy6TO8rShELLhF2bWRvqTxxeKt5LJFNFrWuc4B8uvMknuBN3Ys/2m1b73QNEValI2muD2gG9ptAEE3tkCRIWtCIVsYiuXIQ1Log0eiykXOqObM1HNaC4ky4wMP+AmC1v7Xcz0V8KFQwJDXOvwbE77+clrFbuViBeC8djPRZ+k6pY+uNIL6o51NxYLFkupghpMi1vOBWjtj8mr/l3f4lY0yAbLhIJM2eaboBjHHdOC1GbhijLSeZyq9rhDmkj85FVPcC5gAIgEeS8J7T+3Gk6NpNahTpUS2maYYHU6znVA5jXOIc3mCCTjC97WHPb2/ZZKPBCAhQoprLopvd3JTWXRTZw7kBVVc8HmsDhxdB47lKi5xHOaGngbX2CW0yxaFptU3YstxibuacVdS0ZrTItb8XOIvM4EoBhQqYHqKmo1MD1FAIOayQ4tBIBAMAkA4gHdgO5RdTpG802knE2R6LmlaI2q0sfe1wgi8XdYvCi7VzDeRujEi6I3HJdUo2OUnO+CLWMptwY0dTQMBAw4Llmn8DfpCo5Kp5H6neqHarYcZ+p/HjxKvLDcl6mxfYp/A36R6ILKfwN+kdm5VHVrL8bzJvd68VwarZhfu/WdumN/EqWhuL1NhttRouFwGAhG1CU5LZ4Ri43RG8rjtVsOM/U7hx4JaO45qmw5tQjahJ8lsyPe71XeTGfku9UtHcXqbDe1CNqEpyUzj9T/AOZHJrML9+92/Helo7jmqbDe1CNqEm3VVMYDxd15ro1TTGAi6MXYd6WjuOapsN7ULm2CVdqxhxHi7qzV4ocUtDcXqbE9sEbYKOx4o2PFLQ3F6mxLbBG2CjsOK7sOKWhuOapsd2wRtQo7HijY8UtHcnNU2JbULu1ChseKNjxS0dxzVNie2CrrdNvb9l3Y8Vyt029v2WZW0NwcnmPhCAhYOgprLops4dyU1l0U2cO5CMV0ljiZFUsERFlpvxm8ThcrKBgQ6paM4wBduEBTfTBmfzcspuraVw90cO1l3+JaXLqyPm0NfatzXC4EGDuKppaO2BcW4mLriTJ8SrdmADGSYBc2pVSmDAE3YqZt5M7z6dSpsWmltstmLwQD2SCkdZ6rfVcXN0iwDTDP1pm0HF/NqATcIuuvxm7LKjVaHTeGxwmfJWwszQ9DcwOB0guLqhfJ3AgSyJwkE3QBNwC0bYzHehSUBUDSGWrFptrCJvmJjri+FdbGY70idEbNzyBddalvTD7UfFO9VW1I76DLel3oAfkzx9FFpFrHNKVNBBa1hqvNl4eXF3PIF4aHNiB0RxAM3mVC6Dn6T4afefRXAcAktD0fZtpt2pdYY1pJvtwItGSTO/enbYzCA7CoraQxkWnNE5kC4YnqGautjMJWtQaXWg4g82bLokNtQ0/s84oVW1LKpvEZLrw+bgyOMz5KijTsta2QYAF2HYNwXNL0QvDhtSLVizBIslpncRM5IGMi3kzvPopUwY5wE8PBYOlajq1C5x0tzS/EAOhstskM54AuuBid+N609WaK6k0tfWNQlxdadcbwLgJuF3imBB6FB7mtEmAMypWhmqq1MO34TEGNxEjjeowvE7bBbLSD1KItQLIbvmVVSpkAycY3ybt5O932AVrd3OiCZF1+N3DNFkHg8Dv6TJnefRdZa/WDY4T6LJ0LVL6bw86SXANqNswQ0WyDIl5MiBjOG6TOiym8EHayMoF/aqBqEQuWhmFCoA4FpIvBGOaAjTrsdc1wPVl6JSp0m9v2U6dI25JuBJvdOIIhoi5t/gFCp0mdv2Qym9TQCF0IQ0J6y6KaJuCV1l0Uw+YEAFAJ1tIpF4b7xZcCG2A5ok5QcZlaKRq16gdA0cuAwdaYJHAEzjCtoVnuPOpFvG0078LkAyoPwPUVNQfgeooBF+isfe5rDG9wBjvXDq2l8ul9Ld+G5X0mBwc0iQbiFDkyjf8Ao234433g+YC2pyWTZLLYjyZT+VT+geiOTKfyaX0j0U26tpAhwpiQQQZOIwTidSe7HKthDkyn8ml9I9Ecl0/lU/pHon0J1J7scq2FHaIC2wWtLfhgRwuiFXyZT+VS+hvon0LBpSksmxDkyn8ql9DfRHJlP5VP6G+ifQhrqT/2fcQ5Mp/Kp/Q30RyZT+VS+geifQg6k/8AZ9xSjogZc1rWzkAPILvug+Fvd/wmkKNJ5ozzPcV90Hwt7v8AhLPrUWktLmAjER/wtNY+mez1Gq8ve2SerwuXnrxqJLpRi3rfbysdKbjf42/IvoupPBLbJgwYHqFc3Rmnc3uVGiauZQbZZMEi4xdccIATNTRGVA220GBdO6YnyC3Rg3BOpGPNrbIzJ4/C3Y63RgLwG9yg/QmkyWtJzIB+yno+iMpyWMDZgGN8THmUwuqSWRza5sxPk9nwN7h6I5PZ8De4eicQqZ5I7IT5PZ8De4eiOT2fA3uHonEIOSOyEfc6cxZZOMQJ68Fyr0m9v2Vz2NtglvOIMG+LhvSz+kzt+yFSSyNEIQEIaFNZdFS0im43iqWCIwab5mecMrlHWXRTLzcLpQCfudXdpL/op93R/MpnR6bmiHPLuJAGXwgfkpHSW0LZt6OXOkc7ZF05GQDkmNDrM/o2U3tAkiWOaMb8RmVW7/xESHVGpgeoqSg7A9qhSnRd/YuOLdqOebVm5k3EX3xmu6Lv7FMl9qIbYjGTam+6IiML5VYLO3yUbYmJvxi6YzXXOgSYgJZtOQXOF7r8iBuA3g/dQzKTyQ1PHyRPHySznub0sPiy6x9x/wAryHtrptWnXaGVXtBptJAc5om0++Acbh3Lvw/DutPkTsca3EKnBya2w1x+x7SrVDQXE3BWTx8llakcX0aTiSYY29xJJdF5JN53jv4J7RzEsOLfEbj9uwrjJWbWxuFTms9Hl795eJf2+SO3yXUKHU5PHyXntXe1VKtUZSax4L5gmzAhpdfB4L0Ur5h7Jfi6HW7/AE3r3cJQhUp1ZSzisO0v0eLiq06dSnGP+Ts+8V6n07t8kdvkuoXhPac7fJQLJIMm6bgbjOeasVVSzabMWr7N9+HOgb7kAaTgOv7FSpdEdSjpGA6/sVKl0R1KgsVdWq1oLnEADeVYsbZ+8VCXf0bDAHxFZbtgYnK2WZGprwkxRoPqRvwHkVTU9oX0762i1GN+IXgdcgea3mMAEAAAYAXBSXSMorNX82jDhUf+eP0Vv39xXQdOp1m2qbw4cMQciDeD1pteQ13oZ0N403RxDAQK1IdEgmJA3Y9hg5r1NCs17WvaZa4BwOYIkFbqU1FKcX8L7prNP03RKVRtuE1aS7NPJr12Zcsx/SZ2/ZaazH9Jnb9lyOxohCAhQoprLoplwMCEtrLortfRWuhzi/ADmuc0Z4NKYag69ta1c6lYyLXWuN4dGe5NrGczR2Eg1XgtvINWpu4Teu6PT0d5hlVziboFV7t3XdhitWj49v8ApLs2FF+B6ipKNTA9RWSlGi7+xLaA8OsOc55eWn4rEWnbosz13pnRd/YuaPScyGAiwBv6UyeyEYWZi6N7RU676dIU6gD3ES4CDZBJFxwuvWFU1xpHvhpbZ1nbWbN0WbcRhkkfZYn3uiJwc7+ByKv44/8Akf7i/QU+Ep0qsopX+G+OOrWv07nwnxFSpTjNvHmthhhZP1Z7rSte6PScadSqGubEiHGJAIwGRC8p7atYKzcY2QIjO0+BBwCS9sfxdb+5/psTft1/TU/3LP4nrlw3CQpypyTd5Rv9k8O504qu6sKsZJfC7Lu16HsdRfhqP7tn8IRrHSqdKKj3WRMb753XZRPZxXdQ/hqP7tn8IWT7dH9Awg4VW+Tl81UlU4np5Xk/U+jUk40OZaJWNrQdPpVgXU32gDBN4gxMX9atrVIGZNwGZ9F5r2Itmi9wdftDIIuNwyvn8wtjT3PbRq1MHCm8tg4Q0m45yJ7slirS5azpre3v+Ep1pTpKTVm15e/vcYbTLBLSTvcMzmMjww81879kx/1dDrd/pvWz7IazrVa5bUqucLDjBN0y2D4lY3su4u0miw3tBdAOF7HE+K+pRoToQrRbT+Hx2n4e9z5tWpGpOjKCw5sn9YbX9d8z6cheKf7QVBpOxbTpNips5EyRajcfsvRVteUGEsqVAx4xaZMb9wyI7182fC1YNJrF5Wx/B9KnxVOV7u1nbHL72NNLabVDQfisvLTExDZxwG7FTGkg9HncRgOs4LtcWhYIMOBBIi67fPoV5z0KSeREuljTMzBnO7G5W0uiOpV1Ww0DKB4FWUuiOpUpDS3Qxx/ZPkqdUtik3jJ8SmnskEHeIWdqmrFqi7pMJI4gmbu0+IXN/Ovoc3hNfQY1hWsN2lsMDb3EtLhHGL4xUdA0g1JcKjHNBLea0jnA3iSTMK+vRD22XXgxIzggweF143qGiaEylasA89xc6STJgDfwAWzoR1pTDqNRhwdTeD2tKyvYSoXaDRJ3Wx2Co4Dwu7F32v1jsqBY2+rVllNoxM81xHUD3kJ/Uegiho9Ojva0T/aPOd/iJXqy4XHWSt5Jp/ldjzYPibrSLT82mvw+6NFZj+kzt+y01mP6TO37LzHoNEIQEKFFNZdFMmYEAbktrLopl+AvhAUVK1UEhtEEbjbAnsi5FKtVJFqlZG82wfsqqzZcR7yWzdZBZcY3SJlS0emZB95c8Yx+jvH91ouQDyjUwPUVJRqYHqKAo0Xf2IIbtAbLrVm50OsxfcThKNF39iuM3QRG/wDO5GFmfMvZX8XR/tO/gcu1vxx/8j/cXoNXezzKFdrxWe4sdEbJ0S5pA5wui834BdrezzBXNU1nztA+BScRJdIEjqX3pcfRdWUr4ctsnndv1Piw4OsqUYtY8181lZL0MD2x/F1v7n+mxOe3P9NT/cs/ietTXXs6ypVdVfVcC6DDaTnAQGtxG+7BXa+1E2s9lR1RzYYGgCmXXNl0mMOksU+NpLpXfyxs8HnaK9GbnwlV9Wy+Z3WOl2/UwvaZoOj6HI/q3eVNGkCNV0v3rvOotzWOoW1aVFpqvAptstIpuJM2RLm4jooqaia7RG0dq+zTcXWtk60TzpFnE9Ldksx42lyQi3lJvJ5Ny/aLLhKnUnK2cbedo/pmPqqu5mr672OLXCoyCDBEmmDf1FW6h02rVo6XtKjnxRdFokxLXz5LV0bUTfd6ujiq6HOBLjTcCIsmAD0ujuzUdU6ibTbVY2q47Vlkl1NzbIIcJE3E87BZlxVBxnu5JrDT4fDwZqHD1oyhso2eOvxaZaoxfYT8Q792/wDiakfZL8XQ63f6b16fUGpWUa1ttV7iWubDqTmjESZN36vaqdV+zrKNdjxVeXMJEGk4AmyR0sIvxXSpxtFurZ5xSWDztL9o5w4OqlTTXyyu8fGL9Dz7/wAd/wDI/wBxT9rahGlVwMDs57GNhb9b2eY2vtjVfO0FSBScRJdIEjiEa69m21Kr6z6zxagw2mXAQGt3b8PFVcbQ6sW3go2yed4vbwM1OCrSpSilnK+ays16k9fe0T9Geymym0gsa6TO8kRd/ZW5q/SHVKdN5aBbphxgm4kNIAG8Xm+dwzWPr7ULazm1XVXNhgaAKZdcLTpO8YrY1dRsU6bGulrWBt7S1xgAAwcMDdG9fMquh0YKHza5/wAz2Po01V6s3L5dBjScB1/YqVLojqUdJwHX9ipUeiOpec9JYla+hsc4VCDabgQYTSFLEaTzKZcNwPgUWnHAAdd/gPVXIQpnHVFI1hpDgTUAgEkkDG8DAG8rRQhVybtd5GVFRvZZ/kFmP6TO37LTWY/pM7fshTRCEBChRTWXRXdI0izA2VR9wvaAR4kLmsuimjMCOCqAvTo03i2aIBPxNbauO9TpaJTYZbTY04SGgHvAVT2V5Nl9KzNwLHEgXXEh44pii10C2QXbyAQMbriSoC1RqYHqKkoPwPUUBVou/sTCSYwnAnvhT2T8z3qgaQldk/M96Nk/M96hLjSErsn5nvRsn5nvQpPSdHD22SXDC9ri03EHEX7lQ3VzQZ2lbcY2ryPEqQa6YtHvUtm/M96ulieJSzV7QLNurHF7icCLjM7/AAC7yY35lbd/Wv3Tx4q3ZvzPejZvzPeoRYFmj0QwWQXHi5xce8q5K7N+Z70bJ+Z70LcaQk3NcMXHvUtk/M96FGkJXZPzPejZPzPehLlmk4Dr+xS9ekCGyHG79UA98qwUnbyT2oNJ+4nvUlFSVpLAqbWRUxoAsw/eReR2SDwwVlNoJiKg63PH/wCkWHjFx70WHnBx71npQ2XY0pyWpcyiBhP1E+ZUrPX3lUbN+Z70bJ+Z71pJLIzcvs9feUWevvKo2T8z3rmyfme9Ulxmz+ZKzn9Jnb9kyKb8z3pep0m9v2VBoBCAhQoprLorukaXTbDXuIMTgTw3Bc1l0U04mLgqragQbotGsS8W8b4dUZfAuiRdBT1NkAAYAReST3nFUVKtUEgUmkbjbieyPz530iSAXCDAkYwd4neoCxRfgeoqSjUwPUUArzbJtEgSLxIN9wwvxKX99oslxc8Q/ZwS4y4mLgThcb+BTAN0FoIO4qBosknZMvMm4XmZk3YzvVsQ7oWsadUlrSZAvBERhI6xIkbpCeSNFjWXtpMbdFwAuyuCu25yHelijCqNZsxabOUie5Q2xyCrgTOzbOfbOWaWZG9i1vS70nNIENDnklpcAHOwF2d2BjqOSaDjMqp9NpxpsMcPDDBCq2pXo+sqZstBdJMAGZ3zM3wCCJzuWkkrImdmyZmYvnOYxVu2OQSzLJxfypjCpq12N6TmtwxIGJgY5lR2xyCrqQ7pMacMb8LwlmRW1J1XAwQZBFxVNTZl7gXOtAWnAFwgRcbvyYORU4uAAAAEADBTNU4WQhPoLHSadMk8/BmNoiHSQedcBzTJ3QrdX6fTrAlhJAszcRFpocAQcDBvG7BRexpxpMMQBIBuGAwU6RDejTa3qu8glhccUHPAxIHaqtscgubUn9UJZi5I1GubLXAjMQfJVuDSGh0zJiJneTh1LgwgNaOpdO4FoMTjxxSwXiLUtZ0mtutwImZMSX3km6BYdfMXK3Q9Z0qpDWOJJaXRH6oIEnKZEcFzYMu/Q07rhcIxnCM5PaVKkxrb20mCJAgAQCZIuG8pYo8hL7Y5BcNY/CEsxctFVpuBE9aRqdJnb9leHb7DVRV6Te37KJNLH7BmgEICEAprLopp4uxhK6y6KchAIVQLTidKLRvZNMBtxGMWhnjuUqD2tN+k2rsHGn1zzQEw7R2EyWNJzgSoDQqWGyZH9keiAZUamB6ihoi4YIqYHqKAzq+jl8EVHsieibjOYPUqxoDoH/UVZmZkcLoiITDi6ybABdLYnC8gEm8XAX9m/BV0a9a/aUZgAiwWyTdI5zhhOe49tbsVQur3Xc7Q0UtM7Wo7g4gjyTKr95d/21Xvo/8AsR7y7/tqvfR/9inOjfRl4d1+yxChS0hxMGjUbxOzj/C8lM/3fJW5hxt7v+ClCm3pd6SZWr3TRG6ec3jMX9SN2OcpJfxv8DSFw1jMbFx4ixB4iXI27vkv76f8ycxeZe0zqFOm6RJYRwNmfAkKf93yS5ViUoUq+5VVHVA4hrARdfdkZ39Sk58qvYqVyaEB5gSwzviz9ypMeT+oR9P2KiqJ79mW3u5FCuj9nyRH7PktXIUoVlTDCErpNWoA3Z0w6bUyQIyxI3qrEy3bEuQqKFarBt0r7oDXNMzMi8jD88LveHfIf/l/zrXK/Duic68ezOqqtStfrubHwkfcFWe8O+Q//L/nR7w75D/8v+dFF+2g5L2n+jEGt6Ar7Dbut9LZlzOjMTZ6VibpWpW6be37LGb7LU3aR7yWua7InDEYBxbagxaiYulbL+kzt+y8XDS4iXN10lta3jfJvDKzdm8bpHeoqeHT9/ZY76D4QgIXpOYrrEc1Xis34m94Xa1ORCy62p2kzCA0/eGfG3vCPeGfG3vCyOQ25I5DbkgNf3hnxt7wovrsg89uGYWVyG3JHIbckA8ys2CLYHEQjbN+cfC7wSPIbckchtyQGjT0hgxq2uuPsFP3yn8QWXyI3JHIjclQanvlP4gj3un8QWXyG3JHIbclAaDdIZam0I61EVW/PP8Ah9EjyG3JHIbclbgfdVb84ju9Fb75T+ILL5EbkjkNuSA1PfKfxBHvdP4gsvkNuSOQ25KA0KukMODh3rj6zSZ2xHAR9wkOQ25I5DbkrcDwrN+cfD0vU6WksGNS11x9lnchtyRyG3JQGp73T+II97p/EFl8htyRyG3JCGk/SmEQHBQ2zIA2kETgQkOQ25I5DbkqUeNVvzj4X39StbpdOOmCszkNuSOQ25KA1Pe6fxBHvdP4gsvkNuSOQ25IDU98p/EEo4gubBBx+yW5DbkntE0EMwVA4EKSFAC4hCAEIQgBCEIAQhCAEIQgBCEIAQhCAEIQgBCEIAQhCAEIQgBCEIAQhCAEIQgBCEIAXUIQAhCEB//Z;" vertex="1" parent="1">
          <mxGeometry x="540" y="110.8" width="260" height="194" as="geometry" />
        </mxCell>
        <mxCell id="ljlW2vq5dHe49hg8azWz-58" value="" style="group" vertex="1" connectable="0" parent="1">
          <mxGeometry x="12.5" y="90" width="440" height="457.52" as="geometry" />
        </mxCell>
        <mxCell id="ljlW2vq5dHe49hg8azWz-60" value="" style="whiteSpace=wrap;html=1;aspect=fixed;fillColor=#CCE5FF;" vertex="1" parent="ljlW2vq5dHe49hg8azWz-58">
          <mxGeometry x="-11.83" y="-30" width="401.83" height="401.83" as="geometry" />
        </mxCell>
        <mxCell id="ljlW2vq5dHe49hg8azWz-3" value="" style="shape=image;html=1;verticalAlign=top;verticalLabelPosition=bottom;labelBackgroundColor=#ffffff;imageAspect=0;aspect=fixed;image=https://cdn2.iconfinder.com/data/icons/crystalproject/128x128/apps/fortress.png;fillColor=#dae8fc;strokeColor=#6c8ebf;" vertex="1" parent="ljlW2vq5dHe49hg8azWz-58">
          <mxGeometry width="72.5" height="72.5" as="geometry" />
        </mxCell>
        <mxCell id="ljlW2vq5dHe49hg8azWz-4" value="" style="shape=image;html=1;verticalAlign=top;verticalLabelPosition=bottom;labelBackgroundColor=#ffffff;imageAspect=0;aspect=fixed;image=https://cdn4.iconfinder.com/data/icons/48-bubbles/48/48.Dashboard-128.png;fillColor=#dae8fc;strokeColor=#6c8ebf;" vertex="1" parent="ljlW2vq5dHe49hg8azWz-58">
          <mxGeometry x="157.5" y="8.285714285714285" width="40.047619047619044" height="40.047619047619044" as="geometry" />
        </mxCell>
        <mxCell id="ljlW2vq5dHe49hg8azWz-44" style="edgeStyle=orthogonalEdgeStyle;rounded=0;orthogonalLoop=1;jettySize=auto;html=1;exitX=0.5;exitY=0;exitDx=0;exitDy=0;entryX=0.5;entryY=0;entryDx=0;entryDy=0;fillColor=#dae8fc;strokeColor=#6c8ebf;" edge="1" parent="ljlW2vq5dHe49hg8azWz-58" source="ljlW2vq5dHe49hg8azWz-3" target="ljlW2vq5dHe49hg8azWz-4">
          <mxGeometry relative="1" as="geometry" />
        </mxCell>
        <mxCell id="ljlW2vq5dHe49hg8azWz-9" value="" style="sketch=0;pointerEvents=1;shadow=0;dashed=0;html=1;strokeColor=#6c8ebf;fillColor=#dae8fc;aspect=fixed;labelPosition=center;verticalLabelPosition=bottom;verticalAlign=top;align=center;outlineConnect=0;shape=mxgraph.vvd.wi_fi;" vertex="1" parent="ljlW2vq5dHe49hg8azWz-58">
          <mxGeometry x="207.5" y="15.19047619047619" width="12.428571428571429" height="12.428571428571429" as="geometry" />
        </mxCell>
        <mxCell id="ljlW2vq5dHe49hg8azWz-18" value="" style="shape=image;html=1;verticalAlign=top;verticalLabelPosition=bottom;labelBackgroundColor=#ffffff;imageAspect=0;aspect=fixed;image=https://cdn4.iconfinder.com/data/icons/48-bubbles/48/48.Dashboard-128.png;fillColor=#dae8fc;strokeColor=#6c8ebf;" vertex="1" parent="ljlW2vq5dHe49hg8azWz-58">
          <mxGeometry x="147.5" y="200.2404761904762" width="40.047619047619044" height="40.047619047619044" as="geometry" />
        </mxCell>
        <mxCell id="ljlW2vq5dHe49hg8azWz-22" value="" style="sketch=0;pointerEvents=1;shadow=0;dashed=0;html=1;strokeColor=#6c8ebf;fillColor=#dae8fc;aspect=fixed;labelPosition=center;verticalLabelPosition=bottom;verticalAlign=top;align=center;outlineConnect=0;shape=mxgraph.vvd.wi_fi;" vertex="1" parent="ljlW2vq5dHe49hg8azWz-58">
          <mxGeometry x="207.5" y="214.04761904761904" width="12.428571428571429" height="12.428571428571429" as="geometry" />
        </mxCell>
        <mxCell id="ljlW2vq5dHe49hg8azWz-41" value="&lt;span style=&quot;&quot;&gt;PIVOT MDM Adapter&amp;nbsp;&lt;/span&gt;" style="whiteSpace=wrap;html=1;shape=mxgraph.basic.octagon2;align=center;verticalAlign=middle;dx=15;fillColor=#dae8fc;strokeColor=#6c8ebf;" vertex="1" parent="ljlW2vq5dHe49hg8azWz-58">
          <mxGeometry x="280" y="65.6" width="107.5" height="104.4" as="geometry" />
        </mxCell>
        <mxCell id="ljlW2vq5dHe49hg8azWz-43" style="edgeStyle=orthogonalEdgeStyle;rounded=0;orthogonalLoop=1;jettySize=auto;html=1;exitX=1;exitY=0.5;exitDx=0;exitDy=0;entryX=0.5;entryY=0;entryDx=0;entryDy=0;entryPerimeter=0;fillColor=#dae8fc;strokeColor=#6c8ebf;" edge="1" parent="ljlW2vq5dHe49hg8azWz-58" source="ljlW2vq5dHe49hg8azWz-4" target="ljlW2vq5dHe49hg8azWz-41">
          <mxGeometry relative="1" as="geometry" />
        </mxCell>
        <mxCell id="ljlW2vq5dHe49hg8azWz-47" style="edgeStyle=orthogonalEdgeStyle;rounded=0;orthogonalLoop=1;jettySize=auto;html=1;exitX=1;exitY=0.5;exitDx=0;exitDy=0;entryX=0.5;entryY=1;entryDx=0;entryDy=0;entryPerimeter=0;fillColor=#dae8fc;strokeColor=#6c8ebf;" edge="1" parent="ljlW2vq5dHe49hg8azWz-58" source="ljlW2vq5dHe49hg8azWz-18" target="ljlW2vq5dHe49hg8azWz-41">
          <mxGeometry relative="1" as="geometry" />
        </mxCell>
        <mxCell id="ljlW2vq5dHe49hg8azWz-48" value="Building One" style="text;html=1;align=center;verticalAlign=middle;resizable=0;points=[];autosize=1;strokeColor=#6c8ebf;fillColor=#dae8fc;" vertex="1" parent="ljlW2vq5dHe49hg8azWz-58">
          <mxGeometry x="7.5" y="194.0495238095238" width="80" height="20" as="geometry" />
        </mxCell>
        <mxCell id="ljlW2vq5dHe49hg8azWz-49" value="Building two" style="text;html=1;align=center;verticalAlign=middle;resizable=0;points=[];autosize=1;strokeColor=#6c8ebf;fillColor=#dae8fc;" vertex="1" parent="ljlW2vq5dHe49hg8azWz-58">
          <mxGeometry y="72.5" width="80" height="20" as="geometry" />
        </mxCell>
        <mxCell id="ljlW2vq5dHe49hg8azWz-50" value="Smart meter two" style="text;html=1;align=center;verticalAlign=middle;resizable=0;points=[];autosize=1;strokeColor=#6c8ebf;fillColor=#dae8fc;" vertex="1" parent="ljlW2vq5dHe49hg8azWz-58">
          <mxGeometry x="143.5" y="41.42857142857143" width="100" height="20" as="geometry" />
        </mxCell>
        <mxCell id="ljlW2vq5dHe49hg8azWz-51" value="Smart meter one" style="text;html=1;align=center;verticalAlign=middle;resizable=0;points=[];autosize=1;strokeColor=#6c8ebf;fillColor=#dae8fc;" vertex="1" parent="ljlW2vq5dHe49hg8azWz-58">
          <mxGeometry x="143.5" y="232" width="100" height="20" as="geometry" />
        </mxCell>
        <mxCell id="ljlW2vq5dHe49hg8azWz-61" style="edgeStyle=orthogonalEdgeStyle;rounded=0;orthogonalLoop=1;jettySize=auto;html=1;exitX=0.5;exitY=1;exitDx=0;exitDy=0;entryX=0.244;entryY=1.01;entryDx=0;entryDy=0;entryPerimeter=0;" edge="1" parent="ljlW2vq5dHe49hg8azWz-58" source="ljlW2vq5dHe49hg8azWz-12" target="ljlW2vq5dHe49hg8azWz-51">
          <mxGeometry relative="1" as="geometry" />
        </mxCell>
        <mxCell id="ljlW2vq5dHe49hg8azWz-12" value="" style="shape=image;html=1;verticalAlign=top;verticalLabelPosition=bottom;labelBackgroundColor=#ffffff;imageAspect=0;aspect=fixed;image=https://cdn2.iconfinder.com/data/icons/crystalproject/128x128/apps/fortress.png" vertex="1" parent="ljlW2vq5dHe49hg8azWz-58">
          <mxGeometry y="214.05" width="80" height="80" as="geometry" />
        </mxCell>
        <mxCell id="ljlW2vq5dHe49hg8azWz-56" style="edgeStyle=orthogonalEdgeStyle;rounded=0;orthogonalLoop=1;jettySize=auto;html=1;exitX=0;exitY=1;exitDx=0;exitDy=0;entryX=0.724;entryY=1.004;entryDx=0;entryDy=0;entryPerimeter=0;" edge="1" parent="1" source="ljlW2vq5dHe49hg8azWz-36" target="ljlW2vq5dHe49hg8azWz-41">
          <mxGeometry relative="1" as="geometry" />
        </mxCell>
        <mxCell id="ljlW2vq5dHe49hg8azWz-57" style="edgeStyle=orthogonalEdgeStyle;rounded=0;orthogonalLoop=1;jettySize=auto;html=1;exitX=0;exitY=0;exitDx=0;exitDy=0;entryX=0.708;entryY=0.004;entryDx=0;entryDy=0;entryPerimeter=0;" edge="1" parent="1" source="ljlW2vq5dHe49hg8azWz-36" target="ljlW2vq5dHe49hg8azWz-41">
          <mxGeometry relative="1" as="geometry" />
        </mxCell>
        <mxCell id="ljlW2vq5dHe49hg8azWz-55" style="edgeStyle=orthogonalEdgeStyle;rounded=0;orthogonalLoop=1;jettySize=auto;html=1;entryX=0;entryY=0.25;entryDx=0;entryDy=0;" edge="1" parent="1" target="ljlW2vq5dHe49hg8azWz-36">
          <mxGeometry relative="1" as="geometry">
            <mxPoint x="380" y="170" as="sourcePoint" />
          </mxGeometry>
        </mxCell>
        <mxCell id="ljlW2vq5dHe49hg8azWz-53" value="Communication&lt;br&gt;through APIs" style="text;html=1;align=center;verticalAlign=middle;resizable=0;points=[];autosize=1;strokeColor=none;fillColor=none;" vertex="1" parent="1">
          <mxGeometry x="410" y="205" width="100" height="30" as="geometry" />
        </mxCell>
        <mxCell id="ljlW2vq5dHe49hg8azWz-54" style="edgeStyle=orthogonalEdgeStyle;rounded=0;orthogonalLoop=1;jettySize=auto;html=1;entryX=0;entryY=0.75;entryDx=0;entryDy=0;" edge="1" parent="1" target="ljlW2vq5dHe49hg8azWz-36">
          <mxGeometry relative="1" as="geometry">
            <mxPoint x="390" y="241" as="sourcePoint" />
          </mxGeometry>
        </mxCell>
        <mxCell id="ljlW2vq5dHe49hg8azWz-52" style="edgeStyle=orthogonalEdgeStyle;rounded=0;orthogonalLoop=1;jettySize=auto;html=1;exitX=1;exitY=0.5;exitDx=0;exitDy=0;exitPerimeter=0;entryX=-0.023;entryY=0.504;entryDx=0;entryDy=0;entryPerimeter=0;" edge="1" parent="1" source="ljlW2vq5dHe49hg8azWz-41" target="ljlW2vq5dHe49hg8azWz-36">
          <mxGeometry relative="1" as="geometry" />
        </mxCell>
      </root>
    </mxGraphModel>
  </diagram>
</mxfile>
